Patient4_TMGait_0pt5_02_right_44_EMG.mot
version=1
nRows=26
nColumns=33
inDegrees=no
endheader
time	1LAddLong	2LGlutMax	3LGlutMed	4LIliopsoas	5LSemiMemb	6LBicFemLong	7LRecFem	8LVastMed	9LVastLat	10LGasMed	11LTibAnt	12lTibPost	13LPeroneusLong	14LSol	15LExtDigLong	16LFlexDigLong	17RAddLong	18RGlutMax	19RGlutMed	20RIliopsoas	21RSemiMemb	22RBicFemLong	23RRecFem	24RVastMed	25RVastLat	26RGasMed	27RTibAnt	28RTibPost	29RPeroneusLong	30RSol	31RExtDigLong	32RFlexDigLong
58.3	-0.022736	-0.066986	-0.02243	0.00061	-0.10788	-0.30411	-0.046234	-0.003357	0.000916	-0.027924	-0.007477	0.00412	0.20371	0.04837	0.017242	0.000305	0.018311	-0.24414	-0.081635	-0.044556	0.076294	-0.061951	-0.38132	-0.032959	0.02655	0.002747	0.058289	0.000153	0.04364	0.03418	0.001373	-0.016785
58.301	-0.018463	-0.042114	-0.010223	0.005341	-0.029755	-0.22903	-0.034943	-0.003052	0.019226	-0.009155	-0.001831	0.006104	0.25879	0.02655	0.005646	0.00412	0.076599	-0.21332	-0.29312	-0.23773	-0.10223	-0.097351	-0.2504	-0.058289	0.049591	-0.002747	0.099487	0.000305	-0.01358	0.013428	-0.001678	-0.013733
58.302	-0.032654	-0.046844	-0.017242	0.008087	-0.051422	0.075684	0.057373	-0.004425	-0.008545	-0.007324	0.006866	-0.002747	-0.099335	-0.030975	0.027771	0.002441	0.072327	-0.233	-0.2298	-0.15625	-0.18387	-0.16144	-0.14465	-0.14374	-0.010986	0.004883	0.14496	-0.006104	-0.052948	0.006866	0.002899	-0.019226
58.303	-0.018768	0.029297	0.012207	0.006256	-0.059052	0.10925	0.057526	-0.014648	0.023346	0.00885	0.006256	0.006561	0.054169	-0.015259	-0.002747	0.000763	0.002594	-0.21088	-0.054932	0.005951	-0.039063	-0.082092	-0.20966	-0.002747	0.023956	-0.001526	0.18921	-0.002899	-0.17181	-0.039978	0	-0.020752
58.304	0.006409	0.050812	-0.036621	0.01236	0.005646	0.011902	0.04837	-0.019989	0.082703	-0.000916	-0.003815	0.010834	-0.040588	-0.010071	-0.013428	-0.001984	-0.02655	-0.18784	0.39978	0.23315	-0.14465	-0.1004	-0.21576	0.010681	0.014038	-0.004272	0.11826	-0.004578	-0.19943	-0.051422	-0.000458	-0.0177
58.305	0.016327	0.078583	-0.09079	0.006561	0.037994	-0.06897	0.03952	-0.034637	0.081177	0.024414	0.000763	0.007477	-0.24414	0.000305	-0.006561	-0.002899	-0.027466	-0.17166	0.21927	0.2272	0.44495	-0.093079	-0.23697	0.048981	0.019684	0.018463	0.005035	-0.003815	-0.25894	-0.069733	-0.001678	-0.0177
58.306	0.022888	0.1297	-0.12985	0.005951	0.040588	0.069885	0.043335	-0.032349	0.066528	0.011597	-0.013123	0.001373	-0.04715	-0.004425	-0.027008	-0.002747	-0.009003	-0.16068	-0.000763	0.15533	0.46478	0.057831	-0.16754	-0.045319	0	0.001068	-0.10117	-0.006866	-0.18356	-0.078735	0.003967	-0.020142
58.307	0.021057	0.14984	-0.080261	0.010529	0.045471	0.09903	-0.003204	-0.012054	0.049744	0.022583	-0.022125	0.006256	0.002899	-0.051727	-0.028839	-0.001068	0.002136	-0.20844	0.054474	0.11963	0.027466	0.31387	-0.1886	-0.075989	-0.012054	-0.001221	-0.11688	-0.00824	-0.056	0.16983	0.004425	-0.027771
58.308	0.019684	0.15823	-0.049591	0.006866	-0.032349	0.16708	-0.00946	-0.021515	0.054932	0.000763	-0.00885	0.002747	-0.041962	-0.032959	-0.023804	-0.004425	0.030975	-0.25207	0.30151	0.075073	-0.10971	0.22766	-0.1442	-0.020599	0.010376	-0.000458	0.032043	-0.002289	-0.06012	0.20432	0.001984	-0.025024
58.309	0.007782	0.13336	0.043182	0.014038	-0.040283	0.159	-0.045166	-0.014191	0.010071	-0.001068	-0.002289	0.001984	-0.091095	-0.011139	-0.017853	-0.000458	0.029755	-0.24521	0.32379	0.016479	-0.089264	-0.002289	-0.16632	0.019684	0.00473	-0.007324	0.04364	0.004578	0.056458	0.14847	0.010529	-0.03418
58.31	0.000916	0.15472	0.027313	0.002289	0.020752	0.062103	-0.09201	-0.012054	0.062561	0.022125	0.002289	0.01358	-0.28214	-0.038757	-0.02594	-0.006714	0.010681	-0.15427	0.38238	-0.001678	0.24063	-0.092773	-0.14145	0.032501	0.016479	-0.036163	0.05722	-0.001068	0.28641	0.15595	0.007019	-0.029144
58.311	0.005493	0.15533	0.041351	0.010986	0.098419	0.092773	-0.079041	-0.023956	0.09903	0.018616	0.009308	-0.005188	-0.26154	-0.036621	-0.034485	-0.004425	0.039368	-0.20844	0.29388	-0.006104	0.3067	-0.14648	-0.15198	-0.061493	0.004883	-0.05127	0.10559	-0.002289	0.38956	0.21454	0.007324	-0.024567
58.312	0.023346	0.18219	0.050201	0.015259	0.16571	0.1918	-0.052338	-0.013275	0.057678	0.006409	0.007477	0.007019	-0.10971	0.027924	0.007477	0.00885	0.025787	-0.23361	-0.30899	0.00885	0.3009	-0.024109	-0.1329	-0.10208	-0.004883	-0.053253	-0.015106	0.002594	0.2124	0.26245	0.003815	-0.024872
58.313	0.001068	0.18875	0.024567	0.019379	0.12512	0.25467	-0.027008	-0.005493	-0.02121	-0.007935	-0.005951	0.011749	0.094757	0.0354	0.009003	0.00412	-0.000305	-0.18601	0.21668	-0.030975	0.25925	-0.015564	-0.17136	-0.084991	-0.007172	-0.061798	-0.10849	-0.016022	0.086212	0.28458	0.011139	-0.017853
58.314	-0.031586	0.24292	-0.062561	0.002594	0.033569	0.048065	-0.03891	0.007019	-0.005798	0.009003	-0.007477	0.007172	0.029449	-0.009155	-0.018921	0.010986	-0.044556	-0.31204	-0.011139	-0.031433	-0.12695	0.081024	-0.215	-0.009003	0.002899	-0.029144	-0.16357	-0.015106	0.04837	0.056458	0.008698	-0.015564
58.315	-0.032654	0.21103	-0.12482	0.00885	-0.12482	-0.21561	-0.099335	0.013275	-0.00946	0.019684	-0.002594	0.005646	-0.10544	-0.002441	-0.026245	0.00351	-0.014801	-0.27634	0.019836	-0.083008	-0.067902	0.2211	-0.20233	0.006714	-0.013428	0.003662	0.036926	-0.015564	0.027161	-0.090942	0.005035	-0.016785
58.316	-0.027466	0.20386	-0.11383	0.001221	-0.22812	-0.53329	-0.15823	0.00473	-0.032959	0.022888	0.006714	0.005341	0.054779	0.009918	-0.009155	0.001068	0.004272	-0.20264	0.31357	-0.085144	-0.004883	0.24368	-0.22095	0.015869	-0.002899	0.016632	0.11856	0.02594	-0.040436	-0.11215	0.002899	-0.025482
58.317	-0.00824	0.16342	-0.014343	-0.010834	-0.14832	-0.5481	-0.097809	-0.002899	-0.058136	0.036469	-0.003357	0.013275	0.1413	0.034943	0.001831	0.007935	-0.006714	-0.24567	0.19226	-0.085144	0.079956	0.091705	-0.13962	0.018158	-0.018768	0.022125	0.002747	0.040283	-0.12894	-0.28976	0.010529	-0.021515
58.318	0.020599	0.14801	0.10696	-0.004578	0.034485	-0.35278	-0.003204	-0.002289	-0.16098	0.033569	-0.02533	0.013733	0.15564	0.045471	0.012512	-0.012817	-0.009155	-0.2327	-0.015106	-0.088959	0.10986	-0.17822	-0.088043	-0.02655	-0.045471	0.024414	-0.087738	-0.007629	-0.14511	-0.42801	0.012512	-0.020447
58.319	0.035858	0.062561	0.067291	0.001984	0.068054	-0.21423	0.05661	0.013733	-0.071716	0.030518	-0.00351	0.009003	-0.10803	0.041809	0.029144	0.009308	-0.01358	-0.31006	-0.001984	-0.020599	0.3038	-0.35584	-0.12436	-0.009003	-0.0354	0.019379	-0.20264	-0.027161	-0.14648	-0.44388	0.008392	-0.020294
58.32	0.031586	0.038605	0.071106	0.009003	0.055847	-0.11353	0.0914	0.006104	-0.0177	0.033875	0.035248	0.008392	-0.13123	-0.02655	0.016479	0.016479	0.00351	-0.31921	0.079346	0.039368	0.24445	-0.25909	-0.13657	-0.013275	-0.013733	-0.002289	0.080414	-0.016785	-0.11261	-0.28885	0.004272	-0.013275
58.321	0.023956	0.023041	0.071411	0.018311	0.046234	-0.16815	0.077972	0.006714	-0.083313	0.028381	0.002747	0.014038	-0.095215	-0.041199	-0.022278	0.005188	0.003662	-0.22751	0.11139	-0.013123	0.1619	-0.082703	-0.1329	-0.036926	-0.00351	-0.013123	0.67078	-0.012054	0.075378	-0.23285	0.016632	-0.007935
58.322	0.012207	-0.013428	0.024261	0.026398	0.053406	-0.11322	0.082855	0.001068	-0.14938	0.020294	-0.003357	0.006866	0.046082	-0.02243	-0.021667	0.011292	0.025024	-0.25925	0.19714	-0.086823	0.028839	0.070953	-0.10819	-0.092773	-0.019684	-0.012512	0.61188	-0.002747	0.051727	-0.25971	0.013428	-0.008392
58.323	0.002594	-0.11719	-0.078125	-0.001678	0.022583	0.061035	0.066833	0.006714	-0.14969	0.015717	-0.007629	0.012665	0.23148	0.064697	0.002441	0.007935	0.018616	-0.19836	0.18127	-0.14816	0.040588	0.11505	-0.12817	-0.098114	-0.014496	-0.011139	0.17059	-0.002136	-0.13336	-0.12177	0.011444	-0.010071
58.324	0.01358	-0.13138	-0.12558	0.002594	-0.049438	0.14481	-0.028381	-0.003204	-0.098724	0.014343	-0.020447	0.007324	0.39948	0.087585	-0.013733	0.014954	0.005951	-0.18173	-0.022583	-0.14664	0	0.1471	-0.13947	-0.017548	-0.018616	-0.012207	0.020447	-0.004578	-0.11444	0.081635	0.021057	-0.014496
58.325	0.015106	-0.05661	-0.12543	-0.003204	-0.094147	0.046234	-0.032959	0.007172	-0.066528	0.018768	-0.012665	0.017242	0.15427	0.096741	-0.012207	0.01297	0.003052	-0.19821	0.24612	-0.041656	0.072327	0.13351	-0.12192	-0.019836	0.007782	-0.011292	-0.070801	-0.00351	-0.12329	0.25635	0.009003	-0.015717
